HIERARCHY
ROOT Hips
{
	OFFSET -341.196167 -577.024780 88.986252
	CHANNELS 6 Xposition Yposition Zposition Zrotation Yrotation Xrotation
	JOINT Spine
	{
		OFFSET 0.000000 2.080078 8.814247
		CHANNELS 6 Xposition Yposition Zposition Zrotation Yrotation Xrotation
		JOINT Spine1
		{
			OFFSET 0.000000 0.000000 8.844139
			CHANNELS 6 Xposition Yposition Zposition Zrotation Yrotation Xrotation
			JOINT Spine2
			{
				OFFSET 0.000000 0.000000 11.682266
				CHANNELS 6 Xposition Yposition Zposition Zrotation Yrotation Xrotation
				JOINT Spine3
				{
					OFFSET 0.000000 0.000000 11.746704
					CHANNELS 6 Xposition Yposition Zposition Zrotation Yrotation Xrotation
					JOINT Neck
					{
						OFFSET 0.000000 0.000000 17.658264
						CHANNELS 6 Xposition Yposition Zposition Zrotation Yrotation Xrotation
						JOINT Neck1
						{
							OFFSET 0.000000 0.000000 5.101517
							CHANNELS 6 Xposition Yposition Zposition Zrotation Yrotation Xrotation
							JOINT Head
							{
								OFFSET 0.000000 0.000000 5.101517
								CHANNELS 6 Xposition Yposition Zposition Zrotation Yrotation Xrotation
								JOINT HeadEnd
								{
									OFFSET 0.000000 0.000000 11.655090
									CHANNELS 6 Xposition Yposition Zposition Zrotation Yrotation Xrotation
									End Site
									{
										OFFSET 0.000000 0.000000 0.100006
									}
								}
							}
						}
					}
					JOINT RightShoulder
					{
						OFFSET -2.625397 0.000000 11.175217
						CHANNELS 6 Xposition Yposition Zposition Zrotation Yrotation Xrotation
						JOINT RightArm
						{
							OFFSET 0.000000 0.000000 10.434723
							CHANNELS 6 Xposition Yposition Zposition Zrotation Yrotation Xrotation
							JOINT RightForeArm
							{
								OFFSET 0.000000 0.000000 29.628418
								CHANNELS 6 Xposition Yposition Zposition Zrotation Yrotation Xrotation
								JOINT RightHand
								{
									OFFSET 0.000000 0.000000 22.857605
									CHANNELS 6 Xposition Yposition Zposition Zrotation Yrotation Xrotation
									JOINT RightHandThumb1
									{
										OFFSET -2.867310 -2.944275 3.959564
										CHANNELS 6 Xposition Yposition Zposition Zrotation Yrotation Xrotation
										JOINT RightHandThumb2
										{
											OFFSET 0.000000 0.000000 3.350403
											CHANNELS 6 Xposition Yposition Zposition Zrotation Yrotation Xrotation
											JOINT RightHandThumb3
											{
												OFFSET 0.000000 0.000000 3.756516
												CHANNELS 6 Xposition Yposition Zposition Zrotation Yrotation Xrotation
												JOINT RightHandThumb4
												{
													OFFSET 0.000000 0.000000 3.147339
													CHANNELS 6 Xposition Yposition Zposition Zrotation Yrotation Xrotation
													End Site
													{
														OFFSET 0.000000 0.000000 0.100006
													}
												}
											}
										}
									}
									JOINT RightHandIndex1
									{
										OFFSET -0.086761 -2.345276 10.030899
										CHANNELS 6 Xposition Yposition Zposition Zrotation Yrotation Xrotation
										JOINT RightHandIndex2
										{
											OFFSET 0.000000 0.000000 4.061096
											CHANNELS 6 Xposition Yposition Zposition Zrotation Yrotation Xrotation
											JOINT RightHandIndex3
											{
												OFFSET 0.000000 0.000000 3.248871
												CHANNELS 6 Xposition Yposition Zposition Zrotation Yrotation Xrotation
												JOINT RightHandIndex4
												{
													OFFSET 0.000000 0.000000 2.639709
													CHANNELS 6 Xposition Yposition Zposition Zrotation Yrotation Xrotation
													End Site
													{
														OFFSET 0.000000 0.000000 0.100006
													}
												}
											}
										}
									}
									JOINT RightHandMiddle1
									{
										OFFSET 0.104095 -0.006775 9.502945
										CHANNELS 6 Xposition Yposition Zposition Zrotation Yrotation Xrotation
										JOINT RightHandMiddle2
										{
											OFFSET 0.000000 0.000000 4.568726
											CHANNELS 6 Xposition Yposition Zposition Zrotation Yrotation Xrotation
											JOINT RightHandMiddle3
											{
												OFFSET 0.000000 0.000000 3.654984
												CHANNELS 6 Xposition Yposition Zposition Zrotation Yrotation Xrotation
												JOINT RightHandMiddle4
												{
													OFFSET 0.000000 0.000000 2.741241
													CHANNELS 6 Xposition Yposition Zposition Zrotation Yrotation Xrotation
													End Site
													{
														OFFSET 0.000000 0.000000 0.100006
													}
												}
											}
										}
									}
									JOINT RightHandRing1
									{
										OFFSET 0.086761 2.267456 8.921707
										CHANNELS 6 Xposition Yposition Zposition Zrotation Yrotation Xrotation
										JOINT RightHandRing2
										{
											OFFSET 0.000000 0.000000 4.061096
											CHANNELS 6 Xposition Yposition Zposition Zrotation Yrotation Xrotation
											JOINT RightHandRing3
											{
												OFFSET 0.000000 0.000000 3.654984
												CHANNELS 6 Xposition Yposition Zposition Zrotation Yrotation Xrotation
												JOINT RightHandRing4
												{
													OFFSET 0.000000 0.000000 2.741241
													CHANNELS 6 Xposition Yposition Zposition Zrotation Yrotation Xrotation
													End Site
													{
														OFFSET 0.000000 0.000000 0.100006
													}
												}
											}
										}
									}
									JOINT RightHandPinky1
									{
										OFFSET -0.173492 4.467224 7.976990
										CHANNELS 6 Xposition Yposition Zposition Zrotation Yrotation Xrotation
										JOINT RightHandPinky2
										{
											OFFSET 0.000000 0.000000 3.350403
											CHANNELS 6 Xposition Yposition Zposition Zrotation Yrotation Xrotation
											JOINT RightHandPinky3
											{
												OFFSET 0.000000 0.000000 2.842758
												CHANNELS 6 Xposition Yposition Zposition Zrotation Yrotation Xrotation
												JOINT RightHandPinky4
												{
													OFFSET 0.000000 0.000000 2.639709
													CHANNELS 6 Xposition Yposition Zposition Zrotation Yrotation Xrotation
													End Site
													{
														OFFSET 0.000000 0.000000 0.100006
													}
												}
											}
										}
									}
									JOINT RightForeArmEnd
									{
										OFFSET 0.000000 0.000000 0.000000
										CHANNELS 6 Xposition Yposition Zposition Zrotation Yrotation Xrotation
										End Site
										{
											OFFSET 0.000000 0.000000 0.100006
										}
									}
								}
								JOINT RightArmEnd
								{
									OFFSET 0.000000 0.000000 0.000000
									CHANNELS 6 Xposition Yposition Zposition Zrotation Yrotation Xrotation
									End Site
									{
										OFFSET 0.000000 0.000000 0.100006
									}
								}
							}
						}
					}
					JOINT LeftShoulder
					{
						OFFSET 2.625397 0.000000 11.175217
						CHANNELS 6 Xposition Yposition Zposition Zrotation Yrotation Xrotation
						JOINT LeftArm
						{
							OFFSET 0.000000 0.000000 10.813629
							CHANNELS 6 Xposition Yposition Zposition Zrotation Yrotation Xrotation
							JOINT LeftForeArm
							{
								OFFSET 0.000000 0.000000 28.724777
								CHANNELS 6 Xposition Yposition Zposition Zrotation Yrotation Xrotation
								JOINT LeftHand
								{
									OFFSET 0.644379 0.328857 25.716171
									CHANNELS 6 Xposition Yposition Zposition Zrotation Yrotation Xrotation
									JOINT LeftHandThumb1
									{
										OFFSET 2.867310 -2.944275 3.959564
										CHANNELS 6 Xposition Yposition Zposition Zrotation Yrotation Xrotation
										JOINT LeftHandThumb2
										{
											OFFSET 0.000000 0.000000 3.350403
											CHANNELS 6 Xposition Yposition Zposition Zrotation Yrotation Xrotation
											JOINT LeftHandThumb3
											{
												OFFSET 0.000000 0.000000 3.756516
												CHANNELS 6 Xposition Yposition Zposition Zrotation Yrotation Xrotation
												JOINT LeftHandThumb4
												{
													OFFSET 0.000000 0.000000 3.100006
													CHANNELS 6 Xposition Yposition Zposition Zrotation Yrotation Xrotation
													End Site
													{
														OFFSET 0.000000 0.000000 0.100006
													}
												}
											}
										}
									}
									JOINT LeftHandIndex1
									{
										OFFSET 0.086761 -2.345276 10.030899
										CHANNELS 6 Xposition Yposition Zposition Zrotation Yrotation Xrotation
										JOINT LeftHandIndex2
										{
											OFFSET 0.000000 0.000000 4.061096
											CHANNELS 6 Xposition Yposition Zposition Zrotation Yrotation Xrotation
											JOINT LeftHandIndex3
											{
												OFFSET 0.000000 0.000000 3.248871
												CHANNELS 6 Xposition Yposition Zposition Zrotation Yrotation Xrotation
												JOINT LeftHandIndex4
												{
													OFFSET 0.000000 0.000000 2.639709
													CHANNELS 6 Xposition Yposition Zposition Zrotation Yrotation Xrotation
													End Site
													{
														OFFSET 0.000000 0.000000 0.100006
													}
												}
											}
										}
									}
									JOINT LeftHandMiddle1
									{
										OFFSET -0.104095 -0.006775 9.502945
										CHANNELS 6 Xposition Yposition Zposition Zrotation Yrotation Xrotation
										JOINT LeftHandMiddle2
										{
											OFFSET 0.000000 0.000000 4.568726
											CHANNELS 6 Xposition Yposition Zposition Zrotation Yrotation Xrotation
											JOINT LeftHandMiddle3
											{
												OFFSET 0.000000 0.000000 3.654984
												CHANNELS 6 Xposition Yposition Zposition Zrotation Yrotation Xrotation
												JOINT LeftHandMiddle4
												{
													OFFSET 0.000000 0.000000 2.741241
													CHANNELS 6 Xposition Yposition Zposition Zrotation Yrotation Xrotation
													End Site
													{
														OFFSET 0.000000 0.000000 0.100006
													}
												}
											}
										}
									}
									JOINT LeftHandRing1
									{
										OFFSET -0.086761 2.267456 8.921707
										CHANNELS 6 Xposition Yposition Zposition Zrotation Yrotation Xrotation
										JOINT LeftHandRing2
										{
											OFFSET 0.000000 0.000000 4.061096
											CHANNELS 6 Xposition Yposition Zposition Zrotation Yrotation Xrotation
											JOINT LeftHandRing3
											{
												OFFSET 0.000000 0.000000 3.654984
												CHANNELS 6 Xposition Yposition Zposition Zrotation Yrotation Xrotation
												JOINT LeftHandRing4
												{
													OFFSET 0.000000 0.000000 2.741241
													CHANNELS 6 Xposition Yposition Zposition Zrotation Yrotation Xrotation
													End Site
													{
														OFFSET 0.000000 0.000000 0.100006
													}
												}
											}
										}
									}
									JOINT LeftHandPinky1
									{
										OFFSET 0.173492 4.467224 7.976990
										CHANNELS 6 Xposition Yposition Zposition Zrotation Yrotation Xrotation
										JOINT LeftHandPinky2
										{
											OFFSET 0.000000 0.000000 3.350403
											CHANNELS 6 Xposition Yposition Zposition Zrotation Yrotation Xrotation
											JOINT LeftHandPinky3
											{
												OFFSET 0.000000 0.000000 2.842758
												CHANNELS 6 Xposition Yposition Zposition Zrotation Yrotation Xrotation
												JOINT LeftHandPinky4
												{
													OFFSET 0.000000 0.000000 2.639709
													CHANNELS 6 Xposition Yposition Zposition Zrotation Yrotation Xrotation
													End Site
													{
														OFFSET 0.000000 0.000000 0.100006
													}
												}
											}
										}
									}
									JOINT LeftForeArmEnd
									{
										OFFSET 0.000000 0.000000 0.000000
										CHANNELS 6 Xposition Yposition Zposition Zrotation Yrotation Xrotation
										End Site
										{
											OFFSET 0.000000 0.000000 0.100006
										}
									}
								}
								JOINT LeftArmEnd
								{
									OFFSET 0.000000 0.000000 0.000000
									CHANNELS 6 Xposition Yposition Zposition Zrotation Yrotation Xrotation
									End Site
									{
										OFFSET 0.000000 0.000000 0.100006
									}
								}
							}
						}
					}
				}
			}
		}
	}
	JOINT RightUpLeg
	{
		OFFSET -11.289948 0.000000 0.000000
		CHANNELS 6 Xposition Yposition Zposition Zrotation Yrotation Xrotation
		JOINT RightLeg
		{
			OFFSET 0.000000 0.000000 -38.200329
			CHANNELS 6 Xposition Yposition Zposition Zrotation Yrotation Xrotation
			JOINT RightFoot
			{
				OFFSET 0.000000 0.000000 -39.900856
				CHANNELS 6 Xposition Yposition Zposition Zrotation Yrotation Xrotation
				JOINT RightToeBase
				{
					OFFSET 0.000000 -15.261658 0.000001
					CHANNELS 6 Xposition Yposition Zposition Zrotation Yrotation Xrotation
					JOINT RightToeBaseEnd
					{
						OFFSET 0.000000 -7.370728 0.000000
						CHANNELS 6 Xposition Yposition Zposition Zrotation Yrotation Xrotation
						End Site
						{
							OFFSET 0.000000 0.000000 0.100000
						}
					}
				}
				JOINT RightLegEnd
				{
					OFFSET 0.000000 0.000000 0.000000
					CHANNELS 6 Xposition Yposition Zposition Zrotation Yrotation Xrotation
					End Site
					{
						OFFSET 0.000000 0.000000 0.100000
					}
				}
			}
			JOINT RightUpLegEnd
			{
				OFFSET 0.000000 0.000000 0.000000
				CHANNELS 6 Xposition Yposition Zposition Zrotation Yrotation Xrotation
				End Site
				{
					OFFSET 0.000000 0.000000 0.099998
				}
			}
		}
	}
	JOINT LeftUpLeg
	{
		OFFSET 11.315674 0.000000 0.000000
		CHANNELS 6 Xposition Yposition Zposition Zrotation Yrotation Xrotation
		JOINT LeftLeg
		{
			OFFSET 0.000000 0.000000 -38.200329
			CHANNELS 6 Xposition Yposition Zposition Zrotation Yrotation Xrotation
			JOINT LeftFoot
			{
				OFFSET 0.000000 0.000000 -39.900856
				CHANNELS 6 Xposition Yposition Zposition Zrotation Yrotation Xrotation
				JOINT LeftToeBase
				{
					OFFSET 0.000000 -15.261658 0.000001
					CHANNELS 6 Xposition Yposition Zposition Zrotation Yrotation Xrotation
					JOINT LeftToeBaseEnd
					{
						OFFSET 0.000000 -7.539978 0.000000
						CHANNELS 6 Xposition Yposition Zposition Zrotation Yrotation Xrotation
						End Site
						{
							OFFSET 0.000000 0.000000 0.100000
						}
					}
				}
				JOINT LeftLegEnd
				{
					OFFSET 0.000000 0.000000 0.000000
					CHANNELS 6 Xposition Yposition Zposition Zrotation Yrotation Xrotation
					End Site
					{
						OFFSET 0.000000 0.000000 0.100000
					}
				}
			}
			JOINT LeftUpLegEnd
			{
				OFFSET 0.000000 0.000000 0.000000
				CHANNELS 6 Xposition Yposition Zposition Zrotation Yrotation Xrotation
				End Site
				{
					OFFSET 0.000000 0.000000 0.099998
				}
			}
		}
	}
}
MOTION
Frames: 2
Frame Time: 0.016667
-6.089752 -4.909607 90.675110 30.863617 4.873127 -7.585197 -0.000002 2.080053 8.814253 -1.003456 -4.683456 5.703282 0.000013 0.000017 8.844151 -0.067783 -0.605853 1.575728 -0.000003 -0.000024 11.682276 -0.757050 -0.334819 2.738691 -0.000001 -0.000020 11.746703 0.274195 0.360850 0.837404 0.000015 0.000014 17.658283 -6.600478 -8.750657 5.819129 0.000014 -0.000024 5.101553 -3.364810 0.046877 -4.335540 -0.000006 0.000013 5.101505 -0.965189 -0.425277 -17.459671 0.000006 0.000001 11.655066 -0.000000 0.000000 -0.000000 -2.625408 -0.000011 11.175217 12.322563 -87.478823 -0.989852 -0.000015 0.000022 10.434731 15.564924 -39.554872 -6.335965 0.000004 -0.000046 29.628471 27.840172 0.680037 75.212206 -0.000031 -0.000135 22.857574 3.173002 56.267508 24.355778 -2.867305 -2.944275 3.959549 32.323874 -25.818631 39.469351 0.000015 -0.000046 3.350418 -31.627939 10.688970 -53.443915 0.000015 -0.000015 3.756470 -20.999437 10.680977 -36.468436 -0.000027 0.000007 3.147357 -0.000001 0.000001 0.000000 -0.086807 -2.345275 10.030928 -72.293482 -70.604082 73.838771 -0.000004 0.000023 4.061096 -6.783618 -58.131139 13.065360 0.000011 -0.000034 3.248848 -7.283608 -58.131180 13.065348 0.000006 0.000063 2.639730 -0.000001 -0.000001 0.000002 0.104099 -0.006790 9.502956 -61.466921 -74.695755 66.235971 0.000013 -0.000018 4.568731 -2.164779 -57.980356 4.807364 0.000027 0.000008 3.654989 -2.664776 -57.980342 4.807372 -0.000000 -0.000004 2.741255 0.000001 -0.000000 0.000000 0.086753 2.267464 8.921726 -81.392318 -84.378340 90.822685 -0.000036 -0.000003 4.061102 2.898741 -61.700828 -6.522624 -0.000013 0.000000 3.654997 3.898763 -61.700821 -6.522616 -0.000002 -0.000016 2.741224 0.000002 -0.000003 0.000000 -0.173496 4.467264 7.977004 -54.944381 -93.113373 70.073124 -0.000008 0.000002 3.350410 9.406451 -59.961493 -19.642801 -0.000019 -0.000008 2.842766 11.406447 -59.961520 -19.642781 -0.000004 -0.000018 2.639727 0.000002 -0.000003 -0.000002 0.000001 -0.000009 0.000015 -0.000000 0.000001 -0.000001 -0.000010 0.000002 0.000008 -0.000000 0.000001 0.000001 2.625399 -0.000021 11.175250 -8.838307 86.572334 -0.542224 0.000008 -0.000004 10.813583 -33.829234 45.221484 -24.542905 0.000014 -0.000008 28.724705 -17.714468 1.029617 95.620306 0.644333 0.328861 25.716179 -6.581685 -51.728902 17.178894 2.867290 -2.944260 3.959549 -33.963327 30.300792 33.475519 0.000015 0.000015 3.350422 40.860152 -8.071851 -68.548455 -0.000008 0.000015 3.756531 27.698152 -11.047390 -47.163091 -0.000034 0.000005 3.100006 -0.000001 -0.000001 -0.000001 0.086792 -2.345293 10.030880 -2.475301 110.862440 -11.506034 0.000015 0.000010 4.061104 -26.308111 75.888558 -33.989774 -0.000015 0.000013 3.248878 -26.808055 75.888538 -33.989719 0.000001 -0.000005 2.639704 0.000001 -0.000000 0.000000 -0.104069 -0.006742 9.502937 -16.137348 111.535842 -18.372121 0.000000 0.000004 4.568724 -10.082455 77.123259 -13.254253 -0.000008 0.000031 3.654942 -10.582423 77.123272 -13.253076 0.000001 0.000021 2.741236 -0.000002 -0.000001 0.000001 -0.086723 2.267475 8.921707 -25.881429 121.634918 -18.916209 -0.000019 -0.000019 4.061096 22.933552 82.385523 27.226575 -0.000010 0.000013 3.654987 23.933724 82.385544 27.227741 -0.000020 -0.000012 2.741243 0.000002 -0.000000 -0.000000 0.173477 4.467232 7.976967 -37.531521 126.317368 -19.726923 -0.000011 -0.000114 3.350432 56.304012 78.230699 68.898338 -0.000015 -0.000057 2.842762 58.303970 78.230719 68.898276 -0.000051 -0.000064 2.639709 0.000000 -0.000000 -0.000000 0.000009 0.000002 0.000000 -0.000000 -0.000001 -0.000000 0.000029 -0.000014 0.000009 0.000002 -0.000005 -0.000004 -11.289940 0.000034 -0.000004 -18.279056 6.946795 18.513819 -0.000008 -0.000014 -38.200333 -2.557706 0.379028 8.423674 -0.000005 -0.000011 -39.900871 -18.795513 -6.626501 36.729131 0.000002 -15.261618 -0.000036 1.979461 0.629531 -26.635260 0.000009 -7.370726 0.000000 -0.000000 -0.000000 0.000001 0.000000 0.000004 0.000000 -0.000001 -0.000000 -0.000000 -0.000014 -0.000003 -0.000008 0.000001 -0.000001 -0.000001 11.315674 0.000031 -0.000003 -7.222646 -10.642755 -1.181203 0.000022 -0.000031 -38.200336 1.913937 -0.287469 8.538587 -0.000003 -0.000032 -39.900848 1.719293 3.364253 33.753514 -0.000014 -15.261745 0.000022 -1.754738 -0.857318 -22.239376 -0.000039 -7.539990 0.000001 0.000002 0.000000 0.000001 -0.000026 0.000055 -0.000000 0.000001 0.000001 -0.000001 -0.000004 0.000004 -0.000007 -0.000001 0.000000 0.000000 
-4.958557 -5.383179 91.143356 30.621008 4.818703 -7.776082 -0.000000 2.080089 8.814259 -0.926836 -4.152538 5.546538 0.000009 -0.000014 8.844131 -0.042217 -0.173593 1.406546 0.000005 -0.000004 11.682280 -1.799459 -0.937210 3.242976 -0.000013 -0.000030 11.746708 -0.161645 -0.352217 1.175434 -0.000011 -0.000031 17.658264 -5.891208 -8.955661 5.212726 -0.000010 0.000032 5.101538 -2.485350 -0.050625 -4.603207 -0.000002 0.000030 5.101549 -0.984068 -0.166924 -17.536167 -0.000001 -0.000006 11.655056 0.000001 0.000001 0.000001 -2.625405 -0.000005 11.175211 15.816328 -89.487349 -5.279116 0.000031 -0.000022 10.434727 15.261445 -40.675235 -5.925974 0.000008 0.000000 29.628454 28.161206 0.820947 77.768076 -0.000046 -0.000034 22.857613 2.557119 56.621022 24.965733 -2.867320 -2.944260 3.959579 32.486900 -26.400049 38.690570 0.000015 -0.000015 3.350391 -32.871177 10.485698 -55.441803 -0.000023 -0.000015 3.756531 -21.866943 10.798287 -37.858854 0.000004 0.000000 3.147342 0.000000 -0.000001 0.000001 -0.086786 -2.345336 10.030871 -88.955209 -71.504499 91.387077 -0.000015 0.000006 4.061104 -8.709995 -61.941128 15.287656 0.000004 0.000046 3.248871 -9.209988 -61.941128 15.287628 -0.000012 -0.000008 2.639728 0.000002 0.000001 -0.000003 0.104102 -0.006784 9.502914 -83.111757 -76.421491 88.907848 -0.000040 0.000010 4.568745 -2.892944 -61.963749 5.647924 0.000005 0.000014 3.654985 -3.392919 -61.963756 5.647875 0.000004 -0.000002 2.741251 -0.000000 -0.000000 0.000000 0.086750 2.267445 8.921696 -133.772506 -82.315247 144.220264 -0.000011 0.000016 4.061085 4.091529 -65.879633 -7.851183 -0.000025 -0.000023 3.654993 5.091527 -65.879654 -7.851199 -0.000009 0.000000 2.741249 -0.000000 0.000001 -0.000002 -0.173462 4.467155 7.976992 -16.963338 -98.663947 32.884519 -0.000046 0.000015 3.350388 12.730531 -63.927306 -23.406935 -0.000015 -0.000004 2.842758 14.730507 -63.927278 -23.406886 0.000014 0.000001 2.639706 -0.000000 -0.000002 0.000001 -0.000022 0.000014 -0.000027 -0.000004 0.000001 -0.000001 0.000009 0.000005 0.000004 -0.000001 -0.000000 -0.000001 2.625393 -0.000013 11.175224 -8.515683 87.165474 -0.522741 0.000038 0.000018 10.813660 -32.335365 47.518828 -27.298261 -0.000002 0.000038 28.724752 -17.946681 1.145687 96.734719 0.644321 0.328884 25.716141 -7.581344 -51.058359 17.321216 2.867300 -2.944275 3.959564 -33.963321 30.300792 33.475522 -0.000008 -0.000015 3.350403 40.860148 -8.071848 -68.548448 -0.000023 0.000000 3.756508 27.698135 -11.047355 -47.163088 -0.000002 0.000002 3.100013 -0.000000 -0.000003 -0.000001 0.086769 -2.345254 10.030899 -2.282124 111.542023 -11.416081 0.000015 -0.000046 4.061100 -27.434908 76.281827 -35.150633 -0.000008 0.000002 3.248882 -27.934985 76.281834 -35.150725 -0.000008 0.000002 2.639703 0.000000 -0.000000 -0.000001 -0.104095 -0.006780 9.502922 -15.444145 112.318636 -17.575494 0.000019 0.000009 4.568735 -10.693974 77.676149 -13.879703 0.000015 0.000004 3.654989 -11.193988 77.676142 -13.879213 0.000006 0.000002 2.741245 0.000000 -0.000001 0.000002 -0.086754 2.267465 8.921692 -25.000067 122.553893 -17.890204 -0.000015 0.000023 4.061081 25.702545 83.029685 30.017852 -0.000008 -0.000004 3.654976 26.702389 83.029685 30.017964 -0.000003 -0.000023 2.741244 0.000004 0.000002 0.000001 0.173492 4.467136 7.976997 -36.302657 127.345981 -18.687007 -0.000015 -0.000111 3.350419 60.324231 78.510641 73.002722 -0.000010 -0.000057 2.842772 62.324370 78.510634 73.002851 -0.000024 -0.000071 2.639730 0.000002 0.000001 0.000000 -0.000007 0.000013 -0.000006 -0.000000 -0.000001 0.000003 0.000012 -0.000013 0.000003 -0.000000 -0.000003 -0.000004 -11.289985 -0.000006 0.000002 -17.197696 4.982356 18.331789 -0.000012 0.000029 -38.200329 -2.568189 0.376531 8.335297 0.000011 0.000036 -39.900879 -17.920372 -7.017964 36.550863 0.000002 -15.261639 0.000002 1.028371 2.111970 -27.783333 0.000004 -7.370725 0.000001 -0.000000 -0.000000 -0.000001 -0.000008 -0.000001 0.000004 0.000000 0.000000 0.000004 -0.000001 0.000002 0.000001 -0.000000 0.000000 -0.000000 11.315644 0.000023 0.000014 -5.795694 -10.113533 -0.684989 0.000008 -0.000038 -38.200336 1.831162 -0.273870 8.503078 0.000005 0.000009 -39.900879 0.512181 2.928194 34.678421 -0.000032 -15.261654 0.000017 -1.639449 -0.801321 -23.086651 -0.000019 -7.539944 0.000000 0.000005 0.000001 -0.000001 -0.000064 0.000054 -0.000002 0.000001 0.000000 -0.000000 0.000021 -0.000012 -0.000004 0.000002 0.000001 0.000000 
